<mxfile host="app.diagrams.net" modified="2024-03-15T00:34:26.906Z" agent="Mozilla/5.0 (Windows NT 10.0; Win64; x64) AppleWebKit/537.36 (KHTML, like Gecko) Chrome/121.0.0.0 Safari/537.36" version="24.0.2" etag="j0wGHP77UWz3HN3buB0J" type="github">
  <diagram name="第 1 页" id="Noz5BER6CDJCzAXN9CoI">
    <mxGraphModel>
      <root>
        <mxCell id="0" />
        <mxCell id="1" parent="0" />
      </root>
    </mxGraphModel>
  </diagram>
</mxfile>
